<?xml version="1.0" encoding="utf-8"?>
<!-- Generator: Adobe Illustrator 16.0.4, SVG Export Plug-In . SVG Version: 6.00 Build 0)  -->
<!DOCTYPE svg PUBLIC "-//W3C//DTD SVG 1.1//EN" "http://www.w3.org/Graphics/SVG/1.1/DTD/svg11.dtd">
<svg version="1.1" id="Layer_1"
    xmlns="http://www.w3.org/2000/svg"
    xmlns:xlink="http://www.w3.org/1999/xlink" x="0px" y="0px" width="500.0px" height="500.0px" viewBox="0 0 500 500" enable-background="new 0 0 500 500" xml:space="preserve">

    <g transform="scale(1.2, 1.2)">
        <g transform="translate(250 250)">
            <!-- torso -->
            <g transform="rotate(10)">
                <g transform="translate(0, 5)">
                    <polygon fill="#EF161F" points="-50,-50 50,-50 -50,50 "/>
                    <polygon fill="#EF161F" points="-50,50 50,-50 50,50"/>
                </g>
            </g>

            <!-- head -->
            <g transform="translate(15 -80)">
                <g transform="rotate(30)">
                    <g transform="scale(.5 .5)">
                        <polygon fill="#0000FF" points="-50,-50 50,-50 -50,50 "/>
                        <polygon fill="#0000FF" points="-50,50 50,-50 50,50"/>
                    </g>
                </g>
            </g>

            <!-- left leg -->
            <g transform="translate(-75 80)">
                <g transform="rotate(45)">
                    <g transform="scale(.2 .6)">
                        <polygon fill="#EF161F" points="-50,-50 50,-50 -50,50 "/>
                        <polygon fill="#EF161F" points="-50,50 50,-50 50,50"/>
                    </g>
                </g>
                <g transform="rotate(-30)">
                    <g transform="translate(-20 50)">
                        <g transform="scale(.2 .6)">
                            <polygon fill="#E8BEAC" points="-50,-50 50,-50 -50,50 "/>
                            <polygon fill="#E8BEAC" points="-50,50 50,-50 50,50"/>
                        </g>
                    </g>
                </g>
            </g>

            <!-- right leg, upper and bottom part switched -->
            <g transform="translate(10 100)">
                <g transform="rotate(-100)">
                    <g transform="translate(-20 20)">
                        <g transform="scale(.2 .6)">
                            <polygon fill="#E8BEAC" points="-50,-50 50,-50 -50,50 "/>
                            <polygon fill="#E8BEAC" points="-50,50 50,-50 50,50"/>
                        </g>
                    </g>
                </g>
                <g transform="rotate(30)">
                    <g transform="scale(.2 .6)">
                        <polygon fill="#EF161F" points="-50,-50 50,-50 -50,50 "/>
                        <polygon fill="#EF161F" points="-50,50 50,-50 50,50"/>
                    </g>
                </g>
            </g>

            <!-- left arm -->
            <g transform="translate(-40 -90)">
                <g transform="rotate(90)">
                    <g transform="scale(.6 .2)">
                        <polygon fill="#EF161F" points="-50,-50 50,-50 -50,50 "/>
                        <polygon fill="#EF161F" points="-50,50 50,-50 50,50"/>
                    </g>
                    <g transform="rotate(60)">
                        <g transform="translate(-50 35)">
                            <g transform="scale(.6 .2)">
                                <polygon fill="#E8BEAC" points="-50,-50 50,-50 -50,50 "/>
                                <polygon fill="#E8BEAC" points="-50,50 50,-50 50,50"/>
                            </g>
                        </g>
                    </g>
                </g>
            </g>

            <!-- right arm -->
            <g transform="translate(80 0)">
                <g transform="rotate(55)">
                    <g transform="scale(.6 .2)">
                        <polygon fill="#EF161F" points="-50,-50 50,-50 -50,50 "/>
                        <polygon fill="#EF161F" points="-50,50 50,-50 50,50"/>
                    </g>
                    <g transform="translate(55 25)">
                        <g transform="rotate(70)">
                            <g transform="scale(.6 .2)">
                                <polygon fill="#E8BEAC" points="-50,-50 50,-50 -50,50 "/>
                                <polygon fill="#E8BEAC" points="-50,50 50,-50 50,50"/>
                            </g>
                        </g>
                    </g>
                </g>
            </g>
        </g>
    </g>


</svg>
